<svg xmlns="http://www.w3.org/2000/svg" width="150" height="25.461" viewBox="0 0 150 25.461"><defs><style>.a{fill:#fff;}</style></defs><path class="a" d="M368.015,485.547a8.265,8.265,0,0,1-.21,2.018,2.477,2.477,0,0,1-.823,1.331,3.818,3.818,0,0,1-1.675.733,13.817,13.817,0,0,1-2.767.224H348.6v-3.5h13.372a1.986,1.986,0,0,0,1.257-.3,1.433,1.433,0,0,0,.358-1.136v-.539q0-.9-.344-1.121a2.2,2.2,0,0,0-1.152-.224H353a7.587,7.587,0,0,1-2.228-.27,2.888,2.888,0,0,1-1.331-.808,2.83,2.83,0,0,1-.644-1.331,9.288,9.288,0,0,1-.165-1.87v-1.226a6.264,6.264,0,0,1,.224-1.794,2.623,2.623,0,0,1,.733-1.212,3.068,3.068,0,0,1,1.376-.673,9.541,9.541,0,0,1,2.183-.21H367.9v3.38H354.223a1.473,1.473,0,0,0-.942.239,1.1,1.1,0,0,0-.284.868v.747a1.229,1.229,0,0,0,.27.928,1.286,1.286,0,0,0,.868.239h8.795a10.573,10.573,0,0,1,2.543.253,3.42,3.42,0,0,1,1.555.808,2.882,2.882,0,0,1,.778,1.436,9.615,9.615,0,0,1,.21,2.168v.841Z" transform="translate(-348.6 -464.761)"/><path class="a" d="M480.1,466.071V453.477H477.83v-3.619H480.1V445.28h4.547v4.577h5.115v3.619H484.65v12.595Z" transform="translate(-456.98 -440.977)"/><path class="a" d="M565.15,489.864V480.47a10.12,10.12,0,0,1,.419-3.111,4.76,4.76,0,0,1,1.331-2.109,5.657,5.657,0,0,1,2.349-1.212,13.55,13.55,0,0,1,3.5-.389h2.9v3.619h-2.781a6.826,6.826,0,0,0-1.556.15,2.127,2.127,0,0,0-1,.51,2.036,2.036,0,0,0-.537.986,6.392,6.392,0,0,0-.165,1.586v9.364H565.15Z" transform="translate(-530.211 -464.77)"/><path class="a" d="M647.47,483.4v.747a4.85,4.85,0,0,0,.119,1.2,1.3,1.3,0,0,0,.434.7,1.768,1.768,0,0,0,.837.344,7.888,7.888,0,0,0,1.3.09h14.552v3.38H650.161q-3.858,0-5.505-1.465t-1.646-4.7v-3.74a11.062,11.062,0,0,1,.344-2.977,3.9,3.9,0,0,1,1.2-1.944,5.246,5.246,0,0,1,2.259-1.062,16.016,16.016,0,0,1,3.559-.329h7.838a10.7,10.7,0,0,1,2.886.329,4.739,4.739,0,0,1,1.825.912,3.113,3.113,0,0,1,.942,1.407,5.7,5.7,0,0,1,.27,1.78V483.4Zm12.206-4.966a1.214,1.214,0,0,0-.405-1.078,2.717,2.717,0,0,0-1.42-.269h-7.419a11.357,11.357,0,0,0-1.407.074,1.842,1.842,0,0,0-.912.344,1.465,1.465,0,0,0-.494.778,5.059,5.059,0,0,0-.15,1.376v.866h12.206Z" transform="translate(-595.509 -464.77)"/><path class="a" d="M794.983,489.847a11.576,11.576,0,0,1-2.9-.3,4.7,4.7,0,0,1-1.81-.852,2.942,2.942,0,0,1-.942-1.347,5.516,5.516,0,0,1-.27-1.78v-1.526a5.942,5.942,0,0,1,.255-1.81,2.979,2.979,0,0,1,.883-1.346,4.155,4.155,0,0,1,1.72-.837,11.183,11.183,0,0,1,2.767-.284h12v-.36a2.651,2.651,0,0,0-.629-2.08,3.346,3.346,0,0,0-2.123-.525H788.941v-3.17h14.986a13.088,13.088,0,0,1,3.306.36,5.66,5.66,0,0,1,2.23,1.091,4.278,4.278,0,0,1,1.271,1.856,7.913,7.913,0,0,1,.405,2.678v3.948a10.885,10.885,0,0,1-.344,2.962,3.981,3.981,0,0,1-1.2,1.944,5.036,5.036,0,0,1-2.273,1.062,16.935,16.935,0,0,1-3.576.315h-8.767Zm11.7-7.33H795.164a1.967,1.967,0,0,0-1.226.344,1.564,1.564,0,0,0-.448,1.3v1.107a1.355,1.355,0,0,0,.478,1.2,2.359,2.359,0,0,0,1.345.329h8.377a6.694,6.694,0,0,0,1.347-.119,2.026,2.026,0,0,0,.928-.434,1.917,1.917,0,0,0,.539-.882,4.989,4.989,0,0,0,.179-1.467v-1.375Z" transform="translate(-717.894 -464.753)"/><path class="a" d="M1167.9,475.325a1.9,1.9,0,0,1-.687,1.5l-11.128,9.663h11.876l-2.073,2.664.129.716h-14.9a1.4,1.4,0,0,1-1.152-.494,1.726,1.726,0,0,1-.4-1.121,2.007,2.007,0,0,1,.747-1.555l11.488-9.723h-11.847V473.65h16.333a1.454,1.454,0,0,1,1.212.51A1.812,1.812,0,0,1,1167.9,475.325Z" transform="translate(-1017.958 -464.769)"/><g transform="translate(96.658 0)"><path class="a" d="M25.823,24.35V14.5a1.113,1.113,0,0,1,1.11-1.111h.645V25.46h-.645A1.114,1.114,0,0,1,25.823,24.35ZM4.238,25.46V13.392h.644A1.114,1.114,0,0,1,5.993,14.5V24.35a1.114,1.114,0,0,1-1.111,1.111ZM28.085,13.392a2.751,2.751,0,0,1,1.478.42,18.41,18.41,0,0,0-.6-2.016A16.935,16.935,0,0,0,25.9,6.514a14.273,14.273,0,0,0-4.524-3.556,12.414,12.414,0,0,0-11.066,0A14.273,14.273,0,0,0,5.788,6.514,16.918,16.918,0,0,0,2.732,11.8,18.507,18.507,0,0,0,2.1,13.91a2.765,2.765,0,0,1,1.625-.518V25.46c-2.992,0-4.176-4.329-3.58-7.8a20.642,20.642,0,0,1,1.222-6.491A18.614,18.614,0,0,1,4.732,5.361,15.777,15.777,0,0,1,9.724,1.44a13.731,13.731,0,0,1,12.243,0,15.77,15.77,0,0,1,4.992,3.921,18.632,18.632,0,0,1,3.361,5.808,20.558,20.558,0,0,1,1.189,5.75c.915,3.561-.214,8.54-3.423,8.541Zm-3.411,8.074c-2.36-2.893-9.058.381-9.059.381C23.153,17.508,24.674,21.466,24.674,21.466ZM10.9,21.694c-3.35-.305-3.654-3.806-3.654-3.806a3.635,3.635,0,0,0,3.73,2.816c3.2,0,7.46-2.816,9.9-2.664a5.028,5.028,0,0,1,3.654,1.9s-.915-.967-3.6-.826c-2.307.122-6.241,2.6-9.5,2.6C11.25,21.719,11.072,21.711,10.9,21.694ZM7.814,18.459s2.131,2.969,9.135-.381c0,0-3.3,2.114-6.054,2.114A3.2,3.2,0,0,1,7.814,18.459Z" transform="translate(0 0)"/></g></svg>